<svg width="101" height="100" viewBox="0 0 101 100" fill="none" xmlns="http://www.w3.org/2000/svg">
<path fill-rule="evenodd" clip-rule="evenodd" d="M50.5 17L5.5 82.4546H95.5L50.5 17ZM88.4275 81.7386H12.5725L50.5 73.9807L88.4275 81.7386ZM11.0467 81.32L50.5 73.25L89.9533 81.32L50.5 67.87L11.0467 81.32ZM50.5 61.7705L11.3173 80.4714L50.5 67.1136L89.6827 80.4714L50.5 61.7705ZM11.6596 79.5147L50.5 60.9773L89.3404 79.5147L50.5 55.6809L11.6596 79.5147ZM50.5 49.5994L12.0625 78.4276L50.5 54.8409L88.9375 78.4276L50.5 49.5994ZM12.5155 77.193L50.5 48.7045L88.4845 77.193L50.5 43.5248L12.5155 77.193ZM50.5 37.4558L13.0095 75.7984L50.5 42.5682L87.9905 75.7984L50.5 37.4558ZM13.5369 74.235L50.5 36.4318L87.463 74.2349L50.5 31.3914L13.5369 74.235ZM50.5 24.3209L12.9456 73.8245L50.5 30.2955L88.0544 73.8245L50.5 24.3209ZM14.7669 70.2391L50.5 23.1364L86.2331 70.239L50.5 18.2637L14.7669 70.2391Z" fill="#DDF0A7"/>
</svg>
