<svg width="101" height="100" viewBox="0 0 101 100" fill="none" xmlns="http://www.w3.org/2000/svg">
<path fill-rule="evenodd" clip-rule="evenodd" d="M90.5 50C90.5 27.9086 72.5914 10 50.5 10C28.4086 10 10.5 27.9086 10.5 50C10.5 72.0914 28.4086 90 50.5 90C72.5914 90 90.5 72.0914 90.5 50ZM45.5 50C45.5 67.5541 46.9135 82.4672 48.8796 87.8526C48.5083 87.4676 48.1071 86.9369 47.6836 86.2206C46.575 84.3448 45.5332 81.5474 44.6416 77.9811C42.8632 70.8677 41.75 60.9743 41.75 50C41.75 39.0257 42.8632 29.1323 44.6416 22.0189C45.5332 18.4526 46.575 15.6552 47.6836 13.7794C48.1071 13.0631 48.5083 12.5324 48.8796 12.1474C46.9135 17.5328 45.5 32.4459 45.5 50ZM53.3164 86.2206C52.8929 86.9369 52.4917 87.4676 52.1204 87.8526C54.0865 82.4672 55.5 67.5541 55.5 50C55.5 32.4459 54.0865 17.5328 52.1204 12.1474C52.4917 12.5324 52.8929 13.0631 53.3164 13.7794C54.425 15.6552 55.4668 18.4526 56.3584 22.0189C58.1368 29.1323 59.25 39.0257 59.25 50C59.25 60.9743 58.1368 70.8677 56.3584 77.9811C55.4668 81.5474 54.425 84.3448 53.3164 86.2206ZM46.8483 87.2492C46.4318 86.9047 46.0142 86.4983 45.5966 86.0273C43.9396 84.1584 42.3903 81.3827 41.0638 77.8454C38.4143 70.78 36.75 60.9355 36.75 50C36.75 39.0645 38.4143 29.22 41.0638 22.1546C42.3903 18.6174 43.9396 15.8416 45.5966 13.9727C46.0142 13.5017 46.4318 13.0953 46.8483 12.7508C43.1315 18.5853 40.5 33.0634 40.5 50C40.5 66.9366 43.1315 81.4147 46.8483 87.2492ZM54.1517 87.2492C54.5682 86.9047 54.9858 86.4983 55.4034 86.0273C57.0604 84.1584 58.6097 81.3827 59.9362 77.8454C62.5857 70.78 64.25 60.9355 64.25 50C64.25 39.0645 62.5857 29.22 59.9362 22.1546C58.6097 18.6174 57.0604 15.8416 55.4034 13.9727C54.9858 13.5017 54.5682 13.0953 54.1517 12.7508C57.8685 18.5853 60.5 33.0634 60.5 50C60.5 66.9366 57.8685 81.4147 54.1517 87.2492ZM37.4759 77.7253C39.5062 81.7858 41.9035 84.8057 44.48 86.6483C39.193 80.4638 35.5 66.3819 35.5 50C35.5 33.6181 39.193 19.5362 44.48 13.3517C41.9035 15.1943 39.5062 18.2142 37.4759 22.2747C33.9604 29.3057 31.75 39.1063 31.75 50C31.75 60.8937 33.9604 70.6943 37.4759 77.7253ZM63.5241 77.7253C61.4938 81.7858 59.0965 84.8057 56.52 86.6483C61.807 80.4638 65.5 66.3819 65.5 50C65.5 33.6181 61.807 19.5362 56.52 13.3517C59.0965 15.1943 61.4938 18.2142 63.5241 22.2747C67.0396 29.3057 69.25 39.1063 69.25 50C69.25 60.8937 67.0396 70.6943 63.5241 77.7253ZM41.8398 86.0658C38.8794 84.1595 36.1745 81.2892 33.8823 77.6218C29.5009 70.6114 26.75 60.8489 26.75 50C26.75 39.1511 29.5009 29.3886 33.8823 22.3782C36.1745 18.7108 38.8794 15.8406 41.8398 13.9342C35.1307 20.39 30.5 34.1135 30.5 50C30.5 65.8865 35.1307 79.61 41.8398 86.0658ZM59.1602 86.0658C62.1206 84.1595 64.8255 81.2892 67.1177 77.6218C71.4991 70.6114 74.25 60.8489 74.25 50C74.25 39.1511 71.4991 29.3886 67.1177 22.3782C64.8255 18.7108 62.1206 15.8406 59.1602 13.9342C65.8693 20.39 70.5 34.1135 70.5 50C70.5 65.8865 65.8693 79.61 59.1602 86.0658ZM30.2868 77.5343C32.7894 80.8711 35.7253 83.5747 38.9576 85.4908C30.9602 78.8188 25.5 65.4296 25.5 50C25.5 34.5704 30.9602 21.1812 38.9576 14.5092C35.7253 16.4253 32.7894 19.1289 30.2868 22.4657C25.0352 29.4679 21.75 39.1986 21.75 50C21.75 60.8014 25.0352 70.5321 30.2868 77.5343ZM70.7132 77.5343C68.2106 80.8711 65.2747 83.5747 62.0424 85.4908C70.0398 78.8188 75.5 65.4296 75.5 50C75.5 34.5704 70.0398 21.1812 62.0424 14.5092C65.2747 16.4253 68.2106 19.1289 70.7132 22.4657C75.9648 29.4679 79.25 39.1986 79.25 50C79.25 60.8014 75.9648 70.5321 70.7132 77.5343ZM35.8269 84.8972C24.5846 78.6524 16.75 65.4494 16.75 50C16.75 34.5506 24.5846 21.3476 35.8269 15.1028C26.6799 21.9548 20.5 35.0151 20.5 50C20.5 64.9849 26.6799 78.0452 35.8269 84.8972ZM65.173 84.8972C76.4154 78.6524 84.25 65.4494 84.25 50C84.25 34.5506 76.4154 21.3476 65.1731 15.1028C74.3201 21.9548 80.5 35.0151 80.5 50C80.5 64.9849 74.3201 78.0452 65.173 84.8972ZM11.75 50C11.75 64.9353 20.1996 77.8972 32.5792 84.366C22.3502 77.384 15.5 64.6062 15.5 50C15.5 35.3938 22.3502 22.616 32.5792 15.634C20.1996 22.1028 11.75 35.0647 11.75 50ZM89.25 50C89.25 64.9353 80.8004 77.8972 68.4208 84.366C78.6498 77.384 85.5 64.6062 85.5 50C85.5 35.3938 78.6498 22.616 68.4208 15.634C80.8004 22.1028 89.25 35.0647 89.25 50ZM52.7952 78.1292C53.6918 70.9564 54.25 61.0107 54.25 50C54.25 38.9893 53.6918 29.0436 52.7952 21.8708C52.3458 18.2756 51.8171 15.425 51.2475 13.4977C51.2064 13.3587 51.1656 13.2261 51.125 13.0996V86.9004C51.1656 86.7739 51.2064 86.6413 51.2475 86.5023C51.8171 84.575 52.3458 81.7244 52.7952 78.1292ZM49.875 13.0996V86.9004C49.8344 86.7739 49.7936 86.6413 49.7525 86.5023C49.1829 84.575 48.6542 81.7244 48.2048 78.1292C47.3082 70.9564 46.75 61.0107 46.75 50C46.75 38.9893 47.3082 29.0436 48.2048 21.8708C48.6542 18.2756 49.1829 15.425 49.7525 13.4977C49.7936 13.3587 49.8344 13.2261 49.875 13.0996Z" fill="#DDF0A7"/>
</svg>
